HIERARCHY
ROOT wineglass3
{
	OFFSET 0.000000 0.000000 0.000000
	CHANNELS 6 Xposition Yposition Zposition Yrotation Xrotation Zrotation
	End Site
	{
		OFFSET 0.000000 0.000000 0.000000
	}
}
MOTION
Frames: 208
Frame Time: 0.008333334
1.785195 3.955762 2.256699 112.079000 10.743830 -0.543182 
1.786172 3.945528 2.259098 111.916700 10.946210 -0.725525 
1.785720 3.934884 2.261839 111.843100 11.173180 -0.559509 
1.784460 3.924262 2.264335 111.762300 11.423770 -0.675140 
1.781983 3.914043 2.266885 111.858300 11.421030 -0.625824 
1.778823 3.903348 2.269973 111.870300 11.284980 -0.683167 
1.774629 3.893009 2.273247 111.919100 11.095610 -0.779388 
1.770228 3.881395 2.277395 112.090700 10.753680 -0.796082 
1.765435 3.870008 2.280920 112.170200 10.456110 -0.820953 
1.759859 3.858422 2.284379 112.219600 10.162690 -1.017914 
1.754382 3.845538 2.287650 112.256800 9.714222 -0.918243 
1.748860 3.833014 2.291875 112.403200 9.287663 -1.052551 
1.744085 3.821195 2.294735 112.671700 9.035824 -1.155151 
1.737383 3.808870 2.299004 112.731800 8.736235 -1.251465 
1.730554 3.797281 2.303109 112.982700 8.568007 -1.396759 
1.723810 3.784519 2.307536 113.260300 8.101558 -1.564636 
1.716518 3.772277 2.312328 113.490200 7.565548 -1.649628 
1.709011 3.760514 2.317548 113.678600 7.164576 -1.710876 
1.703595 3.752802 2.323192 113.964500 6.701025 -1.765808 
1.702783 3.754601 2.331357 114.335200 6.544390 -1.441162 
1.704115 3.753184 2.340065 114.456500 6.356812 -0.940704 
1.706131 3.753029 2.345995 114.521900 6.441556 -0.664490 
1.707891 3.752756 2.351320 114.613700 6.462621 -0.363525 
1.710362 3.752336 2.356955 114.770800 6.528079 -0.101959 
1.712416 3.752296 2.360835 114.934200 6.390743 0.113509 
1.714297 3.752405 2.364631 115.035900 6.382900 0.119751 
1.715116 3.752471 2.368397 115.304000 6.329075 0.447191 
1.715073 3.752982 2.371992 115.502000 6.420854 0.524075 
1.713935 3.752962 2.374719 115.682600 6.417099 0.609020 
1.712971 3.752591 2.377584 115.948200 6.218343 0.753342 
1.711387 3.751957 2.380168 116.177000 6.121487 0.804555 
1.709779 3.751794 2.382774 116.454200 5.899959 0.797207 
1.707711 3.751497 2.385685 116.559500 5.714097 0.754379 
1.705579 3.751862 2.388418 116.639700 5.584391 0.785147 
1.702741 3.751770 2.391811 116.823200 5.241911 0.823533 
1.699418 3.750623 2.394742 116.984600 4.807456 0.950762 
1.698099 3.750675 2.399117 117.134400 4.612629 0.988222 
1.699217 3.751294 2.401837 117.313400 4.656630 1.115287 
1.700247 3.751281 2.404124 117.355800 4.594275 1.346776 
1.701056 3.751069 2.406271 117.566800 4.596273 1.498098 
1.702121 3.751352 2.408401 117.865500 4.551878 1.646677 
1.703285 3.751446 2.410561 117.990200 4.639019 1.736866 
1.704058 3.751983 2.413886 118.063400 4.601513 1.812440 
1.704878 3.752232 2.417207 118.122800 4.537788 1.917958 
1.705236 3.752265 2.419789 118.202500 4.532442 2.124392 
1.705858 3.752559 2.421889 118.361400 4.506245 2.150045 
1.706578 3.752918 2.423475 118.466900 4.499881 2.293908 
1.707117 3.752924 2.424563 118.619900 4.508706 2.357591 
1.707425 3.753210 2.424907 118.731100 4.562992 2.378243 
1.707608 3.753364 2.424938 118.844200 4.605344 2.410315 
1.707946 3.753538 2.424515 118.993900 4.714619 2.320187 
1.708213 3.753178 2.423796 119.224800 4.721355 2.254768 
1.707851 3.753389 2.422429 119.388400 4.806314 2.247326 
1.708461 3.752780 2.420499 119.577000 4.888638 2.093216 
1.708740 3.752584 2.418197 119.751400 4.968993 2.050450 
1.709686 3.752031 2.415576 119.924900 5.025466 1.975063 
1.709741 3.752182 2.412201 120.128200 5.117948 1.737307 
1.708659 3.752030 2.408230 120.505700 5.177470 1.499837 
1.704735 3.751246 2.404322 120.660500 5.310556 1.060407 
1.699351 3.750440 2.399767 120.944700 4.990506 0.920993 
1.694143 3.750737 2.397980 121.292800 4.871182 0.672775 
1.689688 3.751519 2.397425 121.503200 4.837704 0.736584 
1.687269 3.751394 2.398518 121.751600 4.745555 0.801261 
1.687314 3.750572 2.401085 122.065000 4.578365 0.985339 
1.689017 3.750587 2.403298 122.390400 4.616566 1.105678 
1.692018 3.750535 2.404912 122.659600 4.725467 1.206221 
1.696193 3.750629 2.405007 122.957400 4.903940 1.367231 
1.699343 3.751029 2.403625 123.213500 5.156573 1.257996 
1.700656 3.751532 2.401762 123.451600 5.203550 1.229972 
1.699283 3.751257 2.399737 123.683900 5.210681 1.144548 
1.696028 3.750710 2.398208 123.832600 5.230396 0.932926 
1.693713 3.751206 2.397784 124.068300 5.192527 0.912787 
1.692523 3.750954 2.398607 124.171800 5.231117 0.998503 
1.693549 3.750377 2.401094 124.440900 4.989256 1.215096 
1.696582 3.750820 2.404673 124.537500 5.030389 1.292505 
1.698733 3.751365 2.407266 124.629200 5.053561 1.440305 
1.698586 3.751100 2.408885 124.755400 4.955624 1.547632 
1.696399 3.751051 2.409959 124.834000 4.844957 1.566596 
1.695688 3.751111 2.408870 124.921300 4.838601 1.490636 
1.695931 3.750837 2.406908 125.016400 5.008576 1.453808 
1.696341 3.750576 2.402702 125.021500 5.038584 1.283664 
1.695667 3.750937 2.399578 125.050700 5.021199 1.158036 
1.695935 3.751269 2.397426 125.028400 5.041942 1.081948 
1.697569 3.751276 2.396957 125.077100 5.170413 1.032378 
1.699152 3.751359 2.397816 125.065000 5.218784 1.047199 
1.698739 3.751322 2.398601 125.100900 5.169316 1.178628 
1.696628 3.750822 2.399601 125.115500 4.977281 1.157902 
1.694700 3.750486 2.401429 125.047800 4.913890 1.268375 
1.694466 3.750528 2.403790 125.098700 4.896252 1.390119 
1.696079 3.750547 2.405077 125.023000 4.846828 1.527903 
1.697302 3.750013 2.404707 125.001100 4.974014 1.457313 
1.696116 3.750074 2.403444 125.045300 4.924048 1.340658 
1.694744 3.749930 2.401548 125.040700 4.923984 1.206972 
1.694685 3.750258 2.400433 125.091600 4.994850 1.254315 
1.696188 3.750369 2.400522 125.080700 5.068959 1.319108 
1.697815 3.750715 2.401198 125.045500 5.084636 1.315573 
1.697302 3.750424 2.401840 125.065300 5.042840 1.336972 
1.695034 3.749520 2.402413 125.033100 5.031009 1.252856 
1.694036 3.749864 2.403066 125.090500 4.888635 1.230187 
1.693909 3.750092 2.403771 125.086600 4.990219 1.303588 
1.695680 3.749960 2.403358 125.051900 5.027728 1.268351 
1.696276 3.750382 2.402226 125.050800 5.143668 1.291155 
1.696242 3.750460 2.401412 125.032000 5.035731 1.314710 
1.696883 3.750555 2.402097 125.089000 5.024622 1.332541 
1.696486 3.749909 2.403189 125.081900 5.081867 1.320832 
1.695689 3.750335 2.404149 125.121000 4.966958 1.325892 
1.695953 3.750721 2.406197 125.021000 4.991798 1.386761 
1.696726 3.750510 2.406554 125.066000 5.032067 1.382770 
1.696613 3.750116 2.405717 125.085800 5.013965 1.406661 
1.699375 3.750903 2.401955 125.229700 5.134970 1.316317 
1.706226 3.750991 2.396132 125.444400 5.478790 1.133202 
1.716106 3.751643 2.389188 126.187700 5.940332 1.086865 
1.727190 3.752422 2.381696 127.085300 6.456727 1.008431 
1.737182 3.753093 2.374507 128.101300 7.019826 1.012897 
1.746821 3.753607 2.366936 129.300300 7.506163 0.884541 
1.752702 3.753805 2.360574 130.601300 7.813564 0.966184 
1.754491 3.754330 2.355339 131.734600 7.961227 0.596246 
1.752304 3.753729 2.350704 132.975000 8.139579 0.547333 
1.749264 3.754294 2.346295 134.343900 8.190292 0.112703 
1.746864 3.754283 2.342383 135.618000 8.227197 -0.052368 
1.745805 3.754101 2.340257 137.080600 8.308942 -0.184815 
1.746344 3.753451 2.338783 138.493900 8.193759 -0.307373 
1.747229 3.753963 2.339470 139.680200 8.244103 -0.370148 
1.749336 3.753980 2.341930 140.615700 8.127542 -0.041840 
1.754735 3.753365 2.345466 141.576600 7.975100 0.296600 
1.760026 3.753082 2.350016 142.520300 7.902159 0.611353 
1.766254 3.753147 2.355187 143.533600 8.000968 0.837336 
1.771634 3.752894 2.357897 144.765100 7.984810 1.102912 
1.778057 3.753207 2.359875 146.258500 8.023037 1.209029 
1.782666 3.753098 2.361051 147.579100 8.140564 1.275413 
1.788327 3.752417 2.361778 148.859100 8.159172 1.726485 
1.793635 3.752838 2.362443 149.946000 8.371944 1.886662 
1.800197 3.753216 2.362867 151.119900 8.527718 2.179114 
1.806501 3.753729 2.362901 152.165300 8.676797 2.402958 
1.811816 3.752746 2.361996 153.277400 8.687497 2.598200 
1.817007 3.753817 2.361135 154.405600 8.830879 2.868358 
1.819011 3.753802 2.360788 155.405900 9.042400 2.611756 
1.820027 3.753527 2.359048 156.484100 9.170160 2.765321 
1.821619 3.753260 2.357101 157.568000 9.153061 2.836836 
1.823542 3.753799 2.355599 158.614300 9.331438 2.661550 
1.825552 3.753617 2.353114 159.549000 9.464628 2.867695 
1.828187 3.753418 2.350779 160.344400 9.647733 2.947602 
1.830940 3.753063 2.348178 161.150700 9.791619 2.934121 
1.835215 3.753903 2.346066 161.972700 10.073970 2.978383 
1.838848 3.753776 2.344483 162.819900 10.059400 3.231513 
1.841325 3.753566 2.343372 163.676100 10.052850 3.319962 
1.841866 3.753166 2.341977 164.360700 10.277700 3.328877 
1.842003 3.753292 2.339550 165.279600 10.314840 3.325050 
1.840616 3.753145 2.336236 166.056500 10.390580 3.269714 
1.839251 3.753571 2.333938 166.796900 10.434580 3.228726 
1.837911 3.753666 2.331784 167.576700 10.676370 3.008090 
1.836920 3.754203 2.329068 168.350600 10.841550 2.878673 
1.836026 3.754135 2.326805 169.134800 10.850370 2.901626 
1.835118 3.754402 2.325091 169.722200 11.029350 2.783033 
1.834668 3.754100 2.322748 170.380200 11.108180 2.845052 
1.833914 3.754132 2.321195 170.872900 11.123540 2.721284 
1.832902 3.753859 2.319261 171.444200 11.207850 2.701556 
1.831180 3.754374 2.318224 171.937200 11.196950 2.477657 
1.829610 3.753974 2.318113 172.427900 11.186860 2.319697 
1.826578 3.754855 2.317939 173.004300 11.164690 2.345089 
1.823010 3.754397 2.317811 173.461500 11.249200 2.117731 
1.819270 3.754595 2.318080 173.821800 11.215690 1.972297 
1.815883 3.754854 2.317952 174.200700 11.225110 1.923158 
1.813171 3.754933 2.317231 174.424600 11.209260 1.719195 
1.810465 3.754950 2.316707 174.778200 11.178780 1.682684 
1.809142 3.755280 2.316391 175.061000 11.127400 1.605560 
1.807877 3.755160 2.316059 175.397800 11.205500 1.562911 
1.807191 3.755017 2.316083 175.676500 11.209120 1.554178 
1.806623 3.755154 2.316801 176.123300 11.250980 1.519029 
1.806015 3.755246 2.317684 176.457700 11.196090 1.497701 
1.804685 3.755177 2.318874 176.910300 11.140310 1.481994 
1.802935 3.755028 2.319705 177.154300 11.119540 1.268972 
1.800333 3.755184 2.321010 177.424800 11.017100 1.110139 
1.796574 3.755095 2.322427 177.763800 10.979800 1.011444 
1.793010 3.755341 2.323197 178.077200 10.821750 1.028974 
1.788969 3.755641 2.324588 178.505800 10.734340 0.658855 
1.785902 3.755616 2.326144 178.805300 10.718610 0.382325 
1.783728 3.755434 2.328226 179.118100 10.600320 0.106532 
1.781227 3.755590 2.330988 179.633900 10.355230 0.330161 
1.779831 3.755875 2.334249 -179.926600 10.208350 0.250219 
1.779039 3.755405 2.337925 -179.405000 9.945968 0.209679 
1.778038 3.755649 2.341290 -178.915800 9.792127 0.220612 
1.777627 3.755318 2.344440 -178.330600 9.703299 -0.047394 
1.777574 3.755685 2.346735 -177.877000 9.609855 -0.132233 
1.777362 3.755768 2.349377 -177.239000 9.365376 0.173474 
1.778328 3.756084 2.352052 -176.748100 9.254539 0.318156 
1.780236 3.755574 2.354217 -176.145600 9.148446 0.487306 
1.782904 3.755638 2.356517 -175.777000 9.019988 0.471403 
1.786106 3.755776 2.358766 -175.299700 8.858667 0.597390 
1.790253 3.755132 2.362268 -174.770700 8.606919 0.701016 
1.795449 3.755038 2.365587 -174.196900 8.573899 0.679524 
1.799712 3.755035 2.368739 -173.607700 8.368661 0.911453 
1.805106 3.754532 2.372012 -173.001600 8.154707 1.212241 
1.809855 3.754295 2.375059 -172.489500 7.893887 1.476941 
1.815696 3.754401 2.379170 -171.855300 7.683771 1.681174 
1.822040 3.753872 2.383009 -171.307800 7.476949 1.908446 
1.828325 3.753227 2.386734 -170.548200 7.158509 2.258247 
1.835076 3.753048 2.389078 -169.750700 6.971576 2.524624 
1.841276 3.752603 2.390943 -169.029900 6.822002 2.717849 
1.846331 3.752639 2.393531 -168.499600 6.732592 3.061525 
1.852510 3.751474 2.394862 -168.042300 6.556398 3.094093 
1.858978 3.750522 2.396586 -167.601200 6.354590 3.149735 
1.865849 3.749749 2.398667 -167.263500 6.201788 3.302360 
1.871556 3.749328 2.400151 -166.923300 5.954573 3.905205 
1.876247 3.748658 2.401917 -166.595600 5.722358 4.072731 
1.880607 3.749285 2.403487 -166.258800 5.780699 4.099061 
1.884057 3.749148 2.405166 -165.828000 5.602656 4.440928 
1.886921 3.748924 2.406826 -165.375200 5.520929 4.585534 
